<svg width="397" height="190" viewBox="0 0 397 190" fill="none" xmlns="http://www.w3.org/2000/svg">
<g clip-path="url(#clip0_1_2)">
<rect width="397" height="190" fill="none"/>
<circle cx="68" cy="68" r="68" fill="#1A73E8" fill-opacity="0.08"/>
<circle cx="68" cy="68" r="48" fill="#1A73E8" fill-opacity="0.12"/>
<line x1="67.85" y1="41.85" x2="67.85" y2="88.15" stroke="#1A73E8" stroke-width="3.7" stroke-linecap="round"/>
<path d="M46 70L68 32L90 70" stroke="#1A73E8" stroke-width="3.5" stroke-linecap="round" stroke-linejoin="round"/>
<path d="M68 96C73.3333 92 78.6667 91.3333 84 94C89.3333 96.6667 94.6667 96 100 92" stroke="#1A73E8" stroke-width="2.5" stroke-linecap="round"/>
<path d="M68 96C62.6667 92 57.3333 91.3333 52 94C46.6667 96.6667 41.3333 96 36 92" stroke="#1A73E8" stroke-width="2.5" stroke-linecap="round"/>
<circle cx="98" cy="48" r="4" fill="#34A853"/>
<circle opacity="0.6" cx="98" cy="48" r="7.25" stroke="#34A853" stroke-width="1.5"/>
<circle opacity="0.3" cx="98" cy="48" r="12.5" stroke="#34A853"/>
<path d="M156.587 116H149.274L162.588 78.1818H171.045L184.378 116H177.065L166.964 85.9375H166.669L156.587 116ZM156.827 101.172H176.77V106.675H156.827V101.172ZM187.49 116V111.051L200.619 98.1804C201.875 96.9124 202.921 95.786 203.758 94.8011C204.595 93.8163 205.223 92.8622 205.642 91.9389C206.06 91.0156 206.27 90.0308 206.27 88.9844C206.27 87.7902 205.999 86.7685 205.457 85.919C204.915 85.0573 204.171 84.3925 203.223 83.9247C202.275 83.4569 201.198 83.223 199.991 83.223C198.748 83.223 197.658 83.4815 196.723 83.9986C195.787 84.5033 195.061 85.2235 194.544 86.1591C194.039 87.0947 193.787 88.2088 193.787 89.5014H187.268C187.268 87.1009 187.816 85.0142 188.912 83.2415C190.007 81.4687 191.515 80.0961 193.436 79.1236C195.368 78.151 197.584 77.6648 200.083 77.6648C202.619 77.6648 204.848 78.1387 206.768 79.0866C208.689 80.0346 210.178 81.3333 211.237 82.983C212.308 84.6326 212.843 86.5161 212.843 88.6335C212.843 90.0492 212.573 91.4403 212.031 92.8068C211.489 94.1733 210.535 95.6875 209.169 97.3494C207.815 99.0114 205.913 101.024 203.463 103.388L196.944 110.017V110.276H213.416V116H187.49ZM223.512 116H216.2L229.514 78.1818H237.971L251.304 116H243.991L233.89 85.9375H233.595L223.512 116ZM223.752 101.172H243.696V106.675H223.752V101.172Z" fill="#1A73E8"/>
<path d="M265.119 99.3807V116H258.435V78.1818H264.972V92.456H265.304C265.969 90.8556 266.997 89.5937 268.388 88.6705C269.791 87.7348 271.576 87.267 273.743 87.267C275.713 87.267 277.43 87.6795 278.895 88.5043C280.36 89.3291 281.492 90.5355 282.293 92.1236C283.105 93.7116 283.511 95.6506 283.511 97.9403V116H276.827V98.9744C276.827 97.0663 276.334 95.5829 275.349 94.5241C274.377 93.4531 273.01 92.9176 271.25 92.9176C270.068 92.9176 269.009 93.1761 268.074 93.6932C267.151 94.1979 266.424 94.9304 265.895 95.8906C265.378 96.8509 265.119 98.0142 265.119 99.3807ZM301.197 116.554C298.428 116.554 296.027 115.945 293.996 114.726C291.964 113.507 290.389 111.802 289.268 109.611C288.161 107.42 287.607 104.859 287.607 101.929C287.607 98.9991 288.161 96.4323 289.268 94.2287C290.389 92.0251 291.964 90.3139 293.996 89.0952C296.027 87.8764 298.428 87.267 301.197 87.267C303.967 87.267 306.368 87.8764 308.399 89.0952C310.43 90.3139 312 92.0251 313.108 94.2287C314.228 96.4323 314.788 98.9991 314.788 101.929C314.788 104.859 314.228 107.42 313.108 109.611C312 111.802 310.43 113.507 308.399 114.726C306.368 115.945 303.967 116.554 301.197 116.554ZM301.234 111.199C302.736 111.199 303.992 110.786 305.001 109.962C306.011 109.125 306.762 108.004 307.254 106.601C307.759 105.197 308.011 103.634 308.011 101.911C308.011 100.175 307.759 98.6051 307.254 97.2017C306.762 95.786 306.011 94.6596 305.001 93.8224C303.992 92.9853 302.736 92.5668 301.234 92.5668C299.696 92.5668 298.415 92.9853 297.393 93.8224C296.384 94.6596 295.627 95.786 295.122 97.2017C294.63 98.6051 294.384 100.175 294.384 101.911C294.384 103.634 294.63 105.197 295.122 106.601C295.627 108.004 296.384 109.125 297.393 109.962C298.415 110.786 299.696 111.199 301.234 111.199ZM322.152 126.636C321.241 126.636 320.398 126.563 319.622 126.415C318.859 126.279 318.25 126.119 317.794 125.935L319.345 120.727C320.318 121.01 321.186 121.146 321.949 121.134C322.712 121.121 323.383 120.881 323.962 120.413C324.553 119.958 325.051 119.195 325.457 118.124L326.03 116.591L315.744 87.6364H322.835L329.372 109.057H329.668L336.223 87.6364H343.332L331.976 119.435C331.446 120.937 330.745 122.223 329.871 123.294C328.997 124.377 327.926 125.202 326.658 125.768C325.402 126.347 323.9 126.636 322.152 126.636Z" fill="#2D2D2D"/>
<line x1="148" y1="135" x2="390" y2="135" stroke="#1A73E8" stroke-opacity="0.3" stroke-width="2"/>
<path d="M149.533 161H148.332L151.804 151.545H152.986L156.457 161H155.257L152.432 153.041H152.358L149.533 161ZM149.976 157.307H154.814V158.322H149.976V157.307ZM161.264 161V160.169L164.385 156.753C164.751 156.353 165.052 156.005 165.289 155.71C165.526 155.411 165.702 155.131 165.816 154.869C165.933 154.605 165.991 154.328 165.991 154.038C165.991 153.706 165.911 153.418 165.751 153.175C165.594 152.932 165.379 152.744 165.105 152.612C164.831 152.48 164.523 152.413 164.181 152.413C163.818 152.413 163.501 152.489 163.23 152.64C162.963 152.787 162.755 152.995 162.607 153.263C162.463 153.531 162.39 153.844 162.39 154.205H161.301C161.301 153.651 161.429 153.164 161.684 152.746C161.939 152.327 162.287 152.001 162.727 151.767C163.17 151.533 163.667 151.416 164.218 151.416C164.772 151.416 165.263 151.533 165.691 151.767C166.119 152.001 166.454 152.316 166.697 152.713C166.941 153.11 167.062 153.552 167.062 154.038C167.062 154.386 166.999 154.726 166.873 155.059C166.75 155.388 166.534 155.756 166.227 156.162C165.922 156.565 165.499 157.058 164.957 157.639L162.833 159.911V159.984H167.228V161H161.264ZM173.189 161H171.989L175.46 151.545H176.642L180.114 161H178.913L176.088 153.041H176.014L173.189 161ZM173.632 157.307H178.47V158.322H173.632V157.307ZM199.85 154.5H198.706C198.638 154.171 198.519 153.881 198.35 153.632C198.184 153.383 197.981 153.174 197.741 153.004C197.504 152.832 197.241 152.703 196.951 152.616C196.662 152.53 196.36 152.487 196.047 152.487C195.474 152.487 194.955 152.632 194.491 152.921C194.029 153.21 193.661 153.637 193.387 154.2C193.117 154.763 192.981 155.454 192.981 156.273C192.981 157.091 193.117 157.782 193.387 158.346C193.661 158.909 194.029 159.335 194.491 159.624C194.955 159.914 195.474 160.058 196.047 160.058C196.36 160.058 196.662 160.015 196.951 159.929C197.241 159.843 197.504 159.715 197.741 159.546C197.981 159.373 198.184 159.163 198.35 158.913C198.519 158.661 198.638 158.372 198.706 158.045H199.85C199.764 158.529 199.607 158.961 199.38 159.343C199.152 159.724 198.869 160.049 198.53 160.317C198.192 160.581 197.812 160.783 197.39 160.922C196.971 161.06 196.524 161.129 196.047 161.129C195.24 161.129 194.523 160.932 193.895 160.538C193.267 160.144 192.773 159.584 192.413 158.858C192.053 158.132 191.873 157.27 191.873 156.273C191.873 155.276 192.053 154.414 192.413 153.688C192.773 152.961 193.267 152.401 193.895 152.007C194.523 151.613 195.24 151.416 196.047 151.416C196.524 151.416 196.971 151.485 197.39 151.624C197.812 151.762 198.192 151.966 198.53 152.233C198.869 152.498 199.152 152.821 199.38 153.203C199.607 153.581 199.764 154.014 199.85 154.5ZM213.178 156.273C213.178 157.27 212.998 158.132 212.638 158.858C212.278 159.584 211.784 160.144 211.156 160.538C210.528 160.932 209.811 161.129 209.005 161.129C208.198 161.129 207.481 160.932 206.853 160.538C206.225 160.144 205.731 159.584 205.371 158.858C205.011 158.132 204.831 157.27 204.831 156.273C204.831 155.276 205.011 154.414 205.371 153.688C205.731 152.961 206.225 152.401 206.853 152.007C207.481 151.613 208.198 151.416 209.005 151.416C209.811 151.416 210.528 151.613 211.156 152.007C211.784 152.401 212.278 152.961 212.638 153.688C212.998 154.414 213.178 155.276 213.178 156.273ZM212.07 156.273C212.07 155.454 211.933 154.763 211.659 154.2C211.388 153.637 211.02 153.21 210.556 152.921C210.094 152.632 209.577 152.487 209.005 152.487C208.432 152.487 207.914 152.632 207.449 152.921C206.987 153.21 206.619 153.637 206.345 154.2C206.075 154.763 205.939 155.454 205.939 156.273C205.939 157.091 206.075 157.782 206.345 158.346C206.619 158.909 206.987 159.335 207.449 159.624C207.914 159.914 208.432 160.058 209.005 160.058C209.577 160.058 210.094 159.914 210.556 159.624C211.02 159.335 211.388 158.909 211.659 158.346C211.933 157.782 212.07 157.091 212.07 156.273ZM226.1 151.545V161H224.992L219.84 153.577H219.748V161H218.603V151.545H219.711L224.881 158.987H224.974V151.545H226.1ZM239.388 151.545V161H238.28L233.128 153.577H233.036V161H231.891V151.545H232.999L238.169 158.987H238.262V151.545H239.388ZM245.179 161V151.545H250.885V152.561H246.324V155.756H250.59V156.771H246.324V159.984H250.959V161H245.179ZM264.057 154.5H262.912C262.844 154.171 262.725 153.881 262.556 153.632C262.39 153.383 262.187 153.174 261.947 153.004C261.71 152.832 261.447 152.703 261.157 152.616C260.868 152.53 260.566 152.487 260.253 152.487C259.68 152.487 259.162 152.632 258.697 152.921C258.235 153.21 257.867 153.637 257.593 154.2C257.323 154.763 257.187 155.454 257.187 156.273C257.187 157.091 257.323 157.782 257.593 158.346C257.867 158.909 258.235 159.335 258.697 159.624C259.162 159.914 259.68 160.058 260.253 160.058C260.566 160.058 260.868 160.015 261.157 159.929C261.447 159.843 261.71 159.715 261.947 159.546C262.187 159.373 262.39 159.163 262.556 158.913C262.725 158.661 262.844 158.372 262.912 158.045H264.057C263.97 158.529 263.813 158.961 263.586 159.343C263.358 159.724 263.075 160.049 262.736 160.317C262.398 160.581 262.018 160.783 261.596 160.922C261.177 161.06 260.73 161.129 260.253 161.129C259.446 161.129 258.729 160.932 258.101 160.538C257.473 160.144 256.979 159.584 256.619 158.858C256.259 158.132 256.079 157.27 256.079 156.273C256.079 155.276 256.259 154.414 256.619 153.688C256.979 152.961 257.473 152.401 258.101 152.007C258.729 151.613 259.446 151.416 260.253 151.416C260.73 151.416 261.177 151.485 261.596 151.624C262.018 151.762 262.398 151.966 262.736 152.233C263.075 152.498 263.358 152.821 263.586 153.203C263.813 153.581 263.97 154.014 264.057 154.5ZM268.89 152.561V151.545H275.98V152.561H273.007V161H271.863V152.561H268.89ZM282.392 151.545V161H281.247V151.545H282.392ZM288.576 151.545L291.382 159.504H291.493L294.3 151.545H295.5L292.029 161H290.847L287.375 151.545H288.576ZM301.618 151.545V161H300.473V151.545H301.618ZM306.896 152.561V151.545H313.987V152.561H311.014V161H309.869V152.561H306.896ZM318.442 151.545H319.753L322.375 155.959H322.486L325.108 151.545H326.419L323.003 157.104V161H321.858V157.104L318.442 151.545ZM346.164 154.5H345.019C344.951 154.171 344.833 153.881 344.664 153.632C344.497 153.383 344.294 153.174 344.054 153.004C343.817 152.832 343.554 152.703 343.265 152.616C342.976 152.53 342.674 152.487 342.36 152.487C341.788 152.487 341.269 152.632 340.804 152.921C340.343 153.21 339.975 153.637 339.701 154.2C339.43 154.763 339.295 155.454 339.295 156.273C339.295 157.091 339.43 157.782 339.701 158.346C339.975 158.909 340.343 159.335 340.804 159.624C341.269 159.914 341.788 160.058 342.36 160.058C342.674 160.058 342.976 160.015 343.265 159.929C343.554 159.843 343.817 159.715 344.054 159.546C344.294 159.373 344.497 159.163 344.664 158.913C344.833 158.661 344.951 158.372 345.019 158.045H346.164C346.078 158.529 345.921 158.961 345.693 159.343C345.465 159.724 345.182 160.049 344.844 160.317C344.505 160.581 344.125 160.783 343.703 160.922C343.285 161.06 342.837 161.129 342.36 161.129C341.554 161.129 340.837 160.932 340.209 160.538C339.581 160.144 339.087 159.584 338.727 158.858C338.367 158.132 338.187 157.27 338.187 156.273C338.187 155.276 338.367 154.414 338.727 153.688C339.087 152.961 339.581 152.401 340.209 152.007C340.837 151.613 341.554 151.416 342.36 151.416C342.837 151.416 343.285 151.485 343.703 151.624C344.125 151.762 344.505 151.966 344.844 152.233C345.182 152.498 345.465 152.821 345.693 153.203C345.921 153.581 346.078 154.014 346.164 154.5ZM351.514 161V151.545H352.659V155.756H357.7V151.545H358.845V161H357.7V156.771H352.659V161H351.514ZM364.637 161V151.545H370.343V152.561H365.782V155.756H370.048V156.771H365.782V159.984H370.417V161H364.637ZM383.515 154.5H382.37C382.302 154.171 382.183 153.881 382.014 153.632C381.848 153.383 381.645 153.174 381.405 153.004C381.168 152.832 380.905 152.703 380.615 152.616C380.326 152.53 380.025 152.487 379.711 152.487C379.138 152.487 378.62 152.632 378.155 152.921C377.693 153.21 377.325 153.637 377.051 154.2C376.781 154.763 376.645 155.454 376.645 156.273C376.645 157.091 376.781 157.782 377.051 158.346C377.325 158.909 377.693 159.335 378.155 159.624C378.62 159.914 379.138 160.058 379.711 160.058C380.025 160.058 380.326 160.015 380.615 159.929C380.905 159.843 381.168 159.715 381.405 159.546C381.645 159.373 381.848 159.163 382.014 158.913C382.183 158.661 382.302 158.372 382.37 158.045H383.515C383.428 158.529 383.271 158.961 383.044 159.343C382.816 159.724 382.533 160.049 382.194 160.317C381.856 160.581 381.476 160.783 381.054 160.922C380.635 161.06 380.188 161.129 379.711 161.129C378.904 161.129 378.187 160.932 377.559 160.538C376.931 160.144 376.438 159.584 376.077 158.858C375.717 158.132 375.537 157.27 375.537 156.273C375.537 155.276 375.717 154.414 376.077 153.688C376.438 152.961 376.931 152.401 377.559 152.007C378.187 151.613 378.904 151.416 379.711 151.416C380.188 151.416 380.635 151.485 381.054 151.624C381.476 151.762 381.856 151.966 382.194 152.233C382.533 152.498 382.816 152.821 383.044 153.203C383.271 153.581 383.428 154.014 383.515 154.5ZM388.865 161V151.545H390.009V156.236H390.12L394.367 151.545H395.863L391.893 155.811L395.863 161H394.478L391.191 156.605L390.009 157.935V161H388.865Z" fill="#666666"/>
<rect x="330" y="182" width="8" height="8" rx="1.5" fill="#34A853" fill-opacity="0.9"/>
<rect x="342" y="182" width="8" height="8" rx="1.5" fill="#1A73E8" fill-opacity="0.7"/>
<rect x="354" y="182" width="8" height="8" rx="1.5" fill="#FBBC04" fill-opacity="0.7"/>
</g>
<defs>
<clipPath id="clip0_1_2">
<rect width="397" height="190" fill="white"/>
</clipPath>
</defs>
</svg>
